<?xml version="1.0" standalone="yes"?>

<svg version="1.1" viewBox="0.0 0.0 861.0314960629921 280.8241469816273" fill="none" stroke="none" stroke-linecap="square" stroke-miterlimit="10" xmlns="http://www.w3.org/2000/svg" xmlns:xlink="http://www.w3.org/1999/xlink"><clipPath id="p.0"><path d="m0 0l861.0315 0l0 280.82416l-861.0315 0l0 -280.82416z" clip-rule="nonzero"></path></clipPath><g clip-path="url(#p.0)"><path fill="#000000" fill-opacity="0.0" d="m0 0l861.0315 0l0 280.82416l-861.0315 0z" fill-rule="evenodd"></path><path fill="#d9ead3" d="m287.6378 190.33595l0 49.67717l0 0c0 21.33908 17.298737 38.637787 38.637817 38.637787l194.4252 0c10.2473755 0 20.075012 -4.0707397 27.321045 -11.316742c7.2459717 -7.246002 11.316711 -17.07367 11.316711 -27.321045l0 -5.519684l11.039368 0l-22.078735 -22.078735l-22.078735 22.078735l11.039368 0l0 5.519684c0 9.145309 -7.4136963 16.559052 -16.559021 16.559052l-194.4252 0l0 0c-9.145325 0 -16.559082 -7.413742 -16.559082 -16.559052l0 -49.67717z" fill-rule="evenodd"></path><path stroke="#000000" stroke-width="1.0" stroke-linejoin="round" stroke-linecap="butt" d="m287.6378 190.33595l0 49.67717l0 0c0 21.33908 17.298737 38.637787 38.637817 38.637787l194.4252 0c10.2473755 0 20.075012 -4.0707397 27.321045 -11.316742c7.2459717 -7.246002 11.316711 -17.07367 11.316711 -27.321045l0 -5.519684l11.039368 0l-22.078735 -22.078735l-22.078735 22.078735l11.039368 0l0 5.519684c0 9.145309 -7.4136963 16.559052 -16.559021 16.559052l-194.4252 0l0 0c-9.145325 0 -16.559082 -7.413742 -16.559082 -16.559052l0 -49.67717z" fill-rule="evenodd"></path><path fill="#cfe2f3" d="m0 22.020998l339.40158 0l0 184.59842l-339.40158 0z" fill-rule="evenodd"></path><path stroke="#000000" stroke-width="1.0" stroke-linejoin="round" stroke-linecap="butt" d="m0 22.020998l339.40158 0l0 184.59842l-339.40158 0z" fill-rule="evenodd"></path><path fill="#ead1dc" d="m517.3018 22.020998l339.4016 0l0 184.59842l-339.4016 0z" fill-rule="evenodd"></path><path stroke="#000000" stroke-width="1.0" stroke-linejoin="round" stroke-linecap="butt" d="m517.3018 22.020998l339.4016 0l0 184.59842l-339.4016 0z" fill-rule="evenodd"></path><path fill="#6fa8dc" d="m3.6693647 0l89.2282 0c0.97317505 0 1.9064865 0.3865927 2.5946274 1.0747321c0.68814087 0.6881393 1.0747375 1.6214566 1.0747375 2.5946326l0 18.346384c0 4.4441223E-4 -3.6621094E-4 8.029938E-4 -8.087158E-4 8.029938E-4l-96.566124 -8.029938E-4l1.3861752E-19 0c-4.4443703E-4 0 -8.047244E-4 -3.604889E-4 -8.047244E-4 -8.049011E-4l8.047244E-4 -18.34558l0 0c0 -2.026534 1.6428305 -3.6693647 3.6693647 -3.6693647z" fill-rule="evenodd"></path><path stroke="#000000" stroke-width="1.0" stroke-linejoin="round" stroke-linecap="butt" d="m3.6693647 0l89.2282 0c0.97317505 0 1.9064865 0.3865927 2.5946274 1.0747321c0.68814087 0.6881393 1.0747375 1.6214566 1.0747375 2.5946326l0 18.346384c0 4.4441223E-4 -3.6621094E-4 8.029938E-4 -8.087158E-4 8.029938E-4l-96.566124 -8.029938E-4l1.3861752E-19 0c-4.4443703E-4 0 -8.047244E-4 -3.604889E-4 -8.047244E-4 -8.049011E-4l8.047244E-4 -18.34558l0 0c0 -2.026534 1.6428305 -3.6693647 3.6693647 -3.6693647z" fill-rule="evenodd"></path><path fill="#6fa8dc" d="m520.9712 0l89.22821 0c0.97320557 0 1.9064941 0.3865927 2.5946045 1.0747321c0.6881714 0.6881393 1.0747681 1.6214566 1.0747681 2.5946326l0 18.346384c0 4.4441223E-4 -3.6621094E-4 8.029938E-4 -7.9345703E-4 8.029938E-4l-96.56616 -8.029938E-4l0 0c-4.272461E-4 0 -7.9345703E-4 -3.604889E-4 -7.9345703E-4 -8.049011E-4l7.9345703E-4 -18.34558l0 0c0 -2.026534 1.6428223 -3.6693647 3.6693726 -3.6693647z" fill-rule="evenodd"></path><path stroke="#000000" stroke-width="1.0" stroke-linejoin="round" stroke-linecap="butt" d="m520.9712 0l89.22821 0c0.97320557 0 1.9064941 0.3865927 2.5946045 1.0747321c0.6881714 0.6881393 1.0747681 1.6214566 1.0747681 2.5946326l0 18.346384c0 4.4441223E-4 -3.6621094E-4 8.029938E-4 -7.9345703E-4 8.029938E-4l-96.56616 -8.029938E-4l0 0c-4.272461E-4 0 -7.9345703E-4 -3.604889E-4 -7.9345703E-4 -8.049011E-4l7.9345703E-4 -18.34558l0 0c0 -2.026534 1.6428223 -3.6693647 3.6693726 -3.6693647z" fill-rule="evenodd"></path><path fill="#c27ba0" d="m617.53815 0l89.22821 0c0.97314453 0 1.9064941 0.3865927 2.5946045 1.0747321c0.6881714 0.6881393 1.074707 1.6214566 1.074707 2.5946326l0 18.346384c0 4.4441223E-4 -3.0517578E-4 8.029938E-4 -7.9345703E-4 8.029938E-4l-96.5661 -8.029938E-4l0 0c-4.272461E-4 0 -7.9345703E-4 -3.604889E-4 -7.9345703E-4 -8.049011E-4l7.9345703E-4 -18.34558l0 0c0 -2.026534 1.6428223 -3.6693647 3.6693726 -3.6693647z" fill-rule="evenodd"></path><path stroke="#000000" stroke-width="1.0" stroke-linejoin="round" stroke-linecap="butt" d="m617.53815 0l89.22821 0c0.97314453 0 1.9064941 0.3865927 2.5946045 1.0747321c0.6881714 0.6881393 1.074707 1.6214566 1.074707 2.5946326l0 18.346384c0 4.4441223E-4 -3.0517578E-4 8.029938E-4 -7.9345703E-4 8.029938E-4l-96.5661 -8.029938E-4l0 0c-4.272461E-4 0 -7.9345703E-4 -3.604889E-4 -7.9345703E-4 -8.049011E-4l7.9345703E-4 -18.34558l0 0c0 -2.026534 1.6428223 -3.6693647 3.6693726 -3.6693647z" fill-rule="evenodd"></path><path fill="#fff2cc" d="m176.96326 53.700787l129.88977 0l0 118.77165l-129.88977 0z" fill-rule="evenodd"></path><path stroke="#000000" stroke-width="1.0" stroke-linejoin="round" stroke-linecap="butt" d="m176.96326 53.700787l129.88977 0l0 118.77165l-129.88977 0z" fill-rule="evenodd"></path><path fill="#f1c232" d="m241.29396 53.700787l65.54332 0l0 59.370083l-65.54332 0z" fill-rule="evenodd"></path><path stroke="#000000" stroke-width="1.0" stroke-linejoin="round" stroke-linecap="butt" d="m241.29396 53.700787l65.54332 0l0 59.370083l-65.54332 0z" fill-rule="evenodd"></path><path fill="#bf9000" d="m274.67978 113.07087l32.1575 0l0 59.37008l-32.1575 0z" fill-rule="evenodd"></path><path stroke="#000000" stroke-width="1.0" stroke-linejoin="round" stroke-linecap="butt" d="m274.67978 113.07087l32.1575 0l0 59.37008l-32.1575 0z" fill-rule="evenodd"></path><path fill="#e69138" d="m241.29396 113.07087l33.38582 0l0 29.700783l-33.38582 0z" fill-rule="evenodd"></path><path stroke="#000000" stroke-width="1.0" stroke-linejoin="round" stroke-linecap="butt" d="m241.29396 113.07087l33.38582 0l0 29.700783l-33.38582 0z" fill-rule="evenodd"></path><path fill="#f6b26b" d="m241.29396 142.77165l33.38582 0l0 29.70079l-33.38582 0z" fill-rule="evenodd"></path><path stroke="#000000" stroke-width="1.0" stroke-linejoin="round" stroke-linecap="butt" d="m241.29396 142.77165l33.38582 0l0 29.70079l-33.38582 0z" fill-rule="evenodd"></path><path fill="#f3f3f3" d="m549.68243 49.992176l274.64038 0l0 133.60631l-274.64038 0z" fill-rule="evenodd"></path><path stroke="#000000" stroke-width="1.0" stroke-linejoin="round" stroke-linecap="butt" d="m549.68243 49.992176l274.64038 0l0 133.60631l-274.64038 0z" fill-rule="evenodd"></path><path fill="#b7b7b7" d="m549.68243 49.99177l274.64038 0l0 14.842518l-274.64038 0z" fill-rule="evenodd"></path><path stroke="#000000" stroke-width="1.0" stroke-linejoin="round" stroke-linecap="butt" d="m549.68243 49.99177l274.64038 0l0 14.842518l-274.64038 0z" fill-rule="evenodd"></path><path fill="#000000" fill-opacity="0.0" d="m549.68243 64.83429l274.64038 0l0 14.842522l-274.64038 0z" fill-rule="evenodd"></path><path stroke="#000000" stroke-width="1.0" stroke-linejoin="round" stroke-linecap="butt" d="m549.68243 64.83429l274.64038 0l0 14.842522l-274.64038 0z" fill-rule="evenodd"></path><path fill="#000000" fill-opacity="0.0" d="m549.68243 79.67681l274.64038 0l0 14.842522l-274.64038 0z" fill-rule="evenodd"></path><path stroke="#000000" stroke-width="1.0" stroke-linejoin="round" stroke-linecap="butt" d="m549.68243 79.67681l274.64038 0l0 14.842522l-274.64038 0z" fill-rule="evenodd"></path><path fill="#000000" fill-opacity="0.0" d="m549.68243 94.51933l274.64038 0l0 14.842522l-274.64038 0z" fill-rule="evenodd"></path><path stroke="#000000" stroke-width="1.0" stroke-linejoin="round" stroke-linecap="butt" d="m549.68243 94.51933l274.64038 0l0 14.842522l-274.64038 0z" fill-rule="evenodd"></path><path fill="#000000" fill-opacity="0.0" d="m549.68243 109.361855l274.64038 0l0 14.842514l-274.64038 0z" fill-rule="evenodd"></path><path stroke="#000000" stroke-width="1.0" stroke-linejoin="round" stroke-linecap="butt" d="m549.68243 109.361855l274.64038 0l0 14.842514l-274.64038 0z" fill-rule="evenodd"></path><path fill="#000000" fill-opacity="0.0" d="m549.68243 124.20437l274.64038 0l0 14.842522l-274.64038 0z" fill-rule="evenodd"></path><path stroke="#000000" stroke-width="1.0" stroke-linejoin="round" stroke-linecap="butt" d="m549.68243 124.20437l274.64038 0l0 14.842522l-274.64038 0z" fill-rule="evenodd"></path><path fill="#000000" fill-opacity="0.0" d="m549.68243 139.04689l274.64038 0l0 14.842514l-274.64038 0z" fill-rule="evenodd"></path><path stroke="#000000" stroke-width="1.0" stroke-linejoin="round" stroke-linecap="butt" d="m549.68243 139.04689l274.64038 0l0 14.842514l-274.64038 0z" fill-rule="evenodd"></path><path fill="#000000" fill-opacity="0.0" d="m549.68243 153.8894l274.64038 0l0 14.842529l-274.64038 0z" fill-rule="evenodd"></path><path stroke="#000000" stroke-width="1.0" stroke-linejoin="round" stroke-linecap="butt" d="m549.68243 153.8894l274.64038 0l0 14.842529l-274.64038 0z" fill-rule="evenodd"></path></g></svg>

